<?xml version="1.0" encoding="utf-8"?>
<!-- Generator: Adobe Illustrator 24.3.0, SVG Export Plug-In . SVG Version: 6.00 Build 0)  -->
<svg version="1.1" id="Layer_1" xmlns="http://www.w3.org/2000/svg" xmlns:xlink="http://www.w3.org/1999/xlink" x="0px" y="0px"
	 viewBox="0 0 612 792" style="enable-background:new 0 0 612 792;" xml:space="preserve">
<style type="text/css">
	.st0{opacity:0.75;fill:url(#SVGID_1_);enable-background:new    ;}
	.st1{fill:#FFFFFF;}
	.st2{fill:url(#SVGID_2_);}
	.st3{fill:#6FBFC2;}
</style>
<linearGradient id="SVGID_1_" gradientUnits="userSpaceOnUse" x1="189.8182" y1="549.6153" x2="588.8531" y2="549.6153" gradientTransform="matrix(0.1235 0.7258 0.9858 -0.1678 -284.2937 194.5956)">
	<stop  offset="0" style="stop-color:#FFFFFF;stop-opacity:0.3"/>
	<stop  offset="1" style="stop-color:#000000"/>
</linearGradient>
<path class="st0" d="M-0.1,288c204-34.7,408-69.4,612-104.2c0.3,99.3,0.6,198.5,1,297.8C408.4,516.4,203.8,551.2-0.8,586.1
	C-0.6,486.7-0.4,387.3-0.1,288z"/>
<rect x="0.2" y="646" class="st1" width="611.8" height="118.9"/>
<path class="st1" d="M0,792"/>
<path class="st1" d="M612,666.5c-204,0-408,0-612,0c0.2-113,0.4-226,0.6-339c203.8-34,407.6-68,611.4-102
	C612,372.5,612,519.5,612,666.5z"/>
<linearGradient id="SVGID_2_" gradientUnits="userSpaceOnUse" x1="611.05" y1="604.4" x2="611.05" y2="604.4" gradientTransform="matrix(1 0 0 -1 0 792)">
	<stop  offset="0.1134" style="stop-color:#FFFFFF;stop-opacity:0.5"/>
	<stop  offset="1" style="stop-color:#000000"/>
</linearGradient>
<path class="st2" d="M611,187.6"/>
<path class="st3" d="M612,1027.8c-204,0-408,0-612,0c0-93.2,0-186.3,0-279.5c204-13.9,408-27.8,612-41.7
	C612,813.7,612,920.8,612,1027.8z"/>
</svg>
