<?xml version="1.0" encoding="utf-8"?>
<!-- Generator: Adobe Illustrator 24.3.0, SVG Export Plug-In . SVG Version: 6.00 Build 0)  -->
<svg version="1.1" id="Layer_1" xmlns="http://www.w3.org/2000/svg" xmlns:xlink="http://www.w3.org/1999/xlink" x="0px" y="0px"
	 viewBox="0 0 612 792" style="enable-background:new 0 0 612 792;" xml:space="preserve">
<style type="text/css">
	.st0{fill:url(#SVGID_1_);}
	.st1{fill:#FFFFFF;}
	.st2{fill:url(#SVGID_2_);}
</style>
<linearGradient id="SVGID_1_" gradientUnits="userSpaceOnUse" x1="414.4118" y1="234.5164" x2="960.163" y2="234.5164" gradientTransform="matrix(0.2494 0.9684 -3.4909 0.8992 972.2654 -255.3005)">
	<stop  offset="0" style="stop-color:#FFFFFF;stop-opacity:0.3"/>
	<stop  offset="1" style="stop-color:#000000"/>
</linearGradient>
<path class="st0" d="M0,829c0.21-135.36,0.41-270.72,0.62-406.08C204.41,370.42,408.21,317.93,612,265.43
	c0,187.86,0,375.71,0,563.57C408,829,204,829,0,829z"/>
<rect x="0.21" y="645.99" class="st1" width="611.79" height="118.92"/>
<path class="st1" d="M0,792"/>
<path class="st1" d="M612,792c-204,0-408,0-612,0c0.59-104.68,1.19-209.37,1.78-314.05C205.19,425.56,408.59,373.16,612,320.77
	C612,477.85,612,634.92,612,792z"/>
<linearGradient id="SVGID_2_" gradientUnits="userSpaceOnUse" x1="612" y1="320.7694" x2="612" y2="320.7694">
	<stop  offset="0.1134" style="stop-color:#FFFFFF;stop-opacity:0.5"/>
	<stop  offset="1" style="stop-color:#000000"/>
</linearGradient>
<path class="st2" d="M612,320.77"/>
</svg>
